#!OML:ASF G:\JayActor3\Patient Classification 1\Patient 1\Session 5\male.ASF
:FULLY-SPECIFIED
:DEGREES
733
root 14.5141 15.4426 -5.77469 545.95 93.5493 530.766
lowerback 36.1389 -0.628571 -1.16293
upperback 9.18759 -0.387344 -2.47093
thorax -7.83244 0.294299 -1.92099
lowerneck 2.24491 -0.485939 1.78146
upperneck -23.8961 1.01408 3.76001
head -7.7303 0.326427 0.820288
rclavicle 6.75868e-015 2.34566e-014
rhumerus -29.5406 2.66223 -89.133
rradius 41.7187
rwrist -0.356199
rhand -22.1495 -13.4213
rfingers 7.12502
rthumb 4.26439 -43.3583
lclavicle 6.75868e-015 2.34566e-014
lhumerus -30.3691 1.98914 80.0499
lradius 37.974
lwrist 24.5574
lhand -21.0617 13.4258
lfingers 7.12502
lthumb 5.31482 43.3392
rfemur -49.8054 -4.18281 15.5247
rtibia 91.5779
rfoot 33.1154 -7.14852
rtoes -5.14301
lfemur -69.0764 12.4571 -27.9855
ltibia 75.852
lfoot 12.4939 -5.49133
ltoes -36.6508
734
root 14.6421 15.4432 -5.79245 546.252 93.6196 531.013
lowerback 36.1162 -0.641634 -1.20142
upperback 9.1881 -0.41843 -2.47189
thorax -7.8239 0.279093 -1.88987
lowerneck 2.21219 -0.465744 1.79313
upperneck -23.8334 1.01667 3.6732
head -7.70289 0.333986 0.789337
rclavicle -3.18055e-015 -1.31198e-014
rhumerus -29.5279 2.75731 -89.2678
rradius 41.8276
rwrist -0.499855
rhand -22.1221 -13.3701
rfingers 7.12502
rthumb 4.29089 -43.3066
lclavicle -3.18055e-015 -1.31198e-014
lhumerus -30.3359 1.84144 80.0579
lradius 38.1995
lwrist 24.6528
lhand -21.0645 13.3501
lfingers 7.12502
lthumb 5.31202 43.2635
rfemur -50.6333 -4.45789 15.6815
rtibia 92.24
rfoot 32.1259 -6.89803
rtoes -5.40903
lfemur -68.876 12.6104 -28.0299
ltibia 76.2527
lfoot 12.3528 -5.5948
ltoes -36.6863
735
root 14.7685 15.4431 -5.80946 546.375 93.6737 531.088
lowerback 36.1027 -0.666106 -1.21686
upperback 9.19161 -0.454406 -2.46731
thorax -7.81571 0.261735 -1.86323
lowerneck 2.17888 -0.453805 1.80879
upperneck -23.7867 1.00953 3.587
head -7.68062 0.336477 0.758693
rclavicle -1.11319e-014 -6.36111e-015
rhumerus -29.5316 2.83753 -89.3891
rradius 41.9549
rwrist -0.66689
rhand -22.1698 -13.3065
rfingers 7.12502
rthumb 4.24476 -43.244
lclavicle -1.11319e-014 -6.36111e-015
lhumerus -30.3011 1.69411 80.0781
lradius 38.3857
lwrist 24.7091
lhand -21.0248 13.2688
lfingers 7.12502
lthumb 5.35036 43.1812
rfemur -51.4864 -4.74104 15.8872
rtibia 92.8812
rfoot 30.6921 -6.48141
rtoes -5.80911
lfemur -68.6648 12.7425 -28.0581
ltibia 76.6433
lfoot 12.2206 -5.65896
ltoes -36.6987
736
root 14.8934 15.4425 -5.82577 546.434 93.7173 531.102
lowerback 36.0924 -0.698305 -1.2178
upperback 9.1979 -0.494028 -2.45922
thorax -7.80592 0.242768 -1.83915
lowerneck 2.14787 -0.447234 1.82803
upperneck -23.7565 0.996867 3.50158
head -7.66431 0.335923 0.728157
rclavicle -1.59028e-014 -4.65156e-014
rhumerus -29.5466 2.89493 -89.4988
rradius 42.0871
rwrist -0.833551
rhand -22.2897 -13.2163
rfingers 7.12502
rthumb 4.12903 -43.156
lclavicle -1.59028e-014 -4.65156e-014
lhumerus -30.2645 1.55383 80.1092
lradius 38.5374
lwrist 24.7369
lhand -20.9612 13.1879
lfingers 7.12502
lthumb 5.41178 43.0988
rfemur -52.366 -5.01361 16.1294
rtibia 93.4909
rfoot 28.7519 -5.85612
rtoes -6.23667
lfemur -68.4465 12.8563 -28.0798
ltibia 77.0214
lfoot 12.1028 -5.67799
ltoes -36.6907
737
root 15.0172 15.4421 -5.84148 546.48 93.7579 531.105
lowerback 36.0832 -0.735339 -1.21142
upperback 9.20629 -0.536604 -2.44944
thorax -7.79434 0.222478 -1.81603
lowerneck 2.12165 -0.441148 1.84997
upperneck -23.7434 0.98609 3.41898
head -7.65461 0.335805 0.698004
rclavicle -2.14687e-014 -1.70955e-014
rhumerus -29.5663 2.94646 -89.5965
rradius 42.2138
rwrist -0.993067
rhand -22.4461 -13.1038
rfingers 7.12502
rthumb 3.97798 -43.0464
lclavicle -2.14687e-014 -1.70955e-014
lhumerus -30.2304 1.42743 80.1471
lradius 38.6629
lwrist 24.7514
lhand -20.8977 13.1303
lfingers 7.12502
lthumb 5.47307 43.0396
rfemur -53.2744 -5.26662 16.4034
rtibia 94.0578
rfoot 26.3964 -4.98732
rtoes -6.82005
lfemur -68.2208 12.9643 -28.1037
ltibia 77.3815
lfoot 11.9914 -5.65987
ltoes -36.6903
738
root 15.1402 15.4425 -5.8564 546.611 93.8005 531.187
lowerback 36.0686 -0.772714 -1.20916
upperback 9.21664 -0.580726 -2.43859
thorax -7.77858 0.201452 -1.789
lowerneck 2.09924 -0.433412 1.87411
upperneck -23.7448 0.979895 3.33899
head -7.65054 0.337523 0.668031
rclavicle -8.74653e-015 0
rhumerus -29.5837 2.99675 -89.6799
rradius 42.3289
rwrist -1.13263
rhand -22.6123 -12.9627
rfingers 7.12502
rthumb 3.81746 -42.9082
lclavicle -8.74653e-015 0
lhumerus -30.2002 1.31554 80.1906
lradius 38.7717
lwrist 24.7697
lhand -20.8206 13.1112
lfingers 7.12502
lthumb 5.54758 43.0186
rfemur -54.2236 -5.48686 16.7032
rtibia 94.5714
rfoot 23.7451 -4.00472
rtoes -7.61651
lfemur -67.9893 13.0716 -28.1385
ltibia 77.7178
lfoot 11.8941 -5.61145
ltoes -36.6813
739
root 15.2623 15.4437 -5.87054 546.838 93.8454 531.361
lowerback 36.0518 -0.810772 -1.21188
upperback 9.22693 -0.627518 -2.42811
thorax -7.76206 0.17915 -1.75875
lowerneck 2.08217 -0.420863 1.89478
upperneck -23.7584 0.983445 3.26786
head -7.65167 0.343516 0.640883
rclavicle -3.02153e-014 -9.14409e-015
rhumerus -29.5988 3.03988 -89.7534
rradius 42.4225
rwrist -1.23169
rhand -22.7584 -12.7871
rfingers 7.12502
rthumb 3.67644 -42.7351
lclavicle -3.02153e-014 -9.14409e-015
lhumerus -30.1794 1.21816 80.2379
lradius 38.8727
lwrist 24.7941
lhand -20.7521 13.1319
lfingers 7.12502
lthumb 5.61373 43.0375
rfemur -55.2217 -5.67281 17.0274
rtibia 95.0204
rfoot 20.9551 -3.05388
rtoes -8.63133
lfemur -67.7503 13.1811 -28.1856
ltibia 78.0272
lfoot 11.8061 -5.53412
ltoes -36.6592
